<?xml version="1.0" encoding="utf-8"?>
<!-- Generator: Adobe Illustrator 23.0.4, SVG Export Plug-In . SVG Version: 6.00 Build 0)  -->
<svg version="1.1" id="Layer_1" xmlns="http://www.w3.org/2000/svg" xmlns:xlink="http://www.w3.org/1999/xlink" x="0px" y="0px"
	 viewBox="0 0 155.2 102.4" style="enable-background:new 0 0 155.2 102.4;" xml:space="preserve">
<style type="text/css">
	.st0{fill:#7AC5ED;}
	.st1{fill:#348ACA;}
	.st2{fill:#015793;}
	.st3{fill:#3DA9E0;}
	.st4{fill:#0B0B0B;}
</style>
<g>
	<g>
		<g>
			<path class="st0" d="M147.7,39.5c5.4-6.9,7.1-16.9,2-26.8C146.1,5.5,138.5,1,130.4,1h-22.2L147.7,39.5z"/>
		</g>
		<path class="st1" d="M128,48.7h0.9c3.9,0,7.6-1,10.9-2.7l-35.2-34.3v14.2L128,48.7z"/>
		<path class="st2" d="M104.6,25.9v18.9c0,2.2,1.8,3.9,3.9,3.9H128L104.6,25.9z"/>
		<g>
			<path class="st2" d="M128.9,48.7h23.2c1.8,0,2.7-2.2,1.4-3.5l-5.8-5.7C143.3,45.1,136.6,48.7,128.9,48.7z"/>
		</g>
		<path class="st3" d="M139.8,46c3.1-1.6,5.8-3.8,7.9-6.5L108.2,1h-0.6c-1.6,0-3,1.3-3,3v7.7L139.8,46z"/>
	</g>
	<g>
		<path class="st4" d="M1,48.5V18.7h2.1v27.8h17.8v1.9H1z"/>
		<path class="st4" d="M33.1,48.9c-1.5,0-3-0.3-4.3-0.9s-2.5-1.4-3.4-2.5s-1.7-2.3-2.3-3.6c-0.5-1.4-0.8-2.8-0.8-4.4
			c0-1.5,0.3-3,0.8-4.3c0.5-1.4,1.3-2.5,2.2-3.6c1-1,2.1-1.8,3.4-2.4c1.3-0.6,2.7-0.9,4.2-0.9c1.5,0,3,0.3,4.3,0.9
			c1.3,0.6,2.4,1.4,3.4,2.4c1,1,1.7,2.2,2.2,3.6c0.5,1.4,0.8,2.8,0.8,4.3c0,0.1,0,0.3,0,0.5s0,0.3,0,0.4H24.5
			c0.1,1.3,0.4,2.4,0.9,3.5c0.5,1.1,1.1,2,1.9,2.8c0.8,0.8,1.7,1.4,2.7,1.8c1,0.4,2.1,0.7,3.2,0.7c0.8,0,1.5-0.1,2.2-0.3
			c0.7-0.2,1.4-0.5,2-0.9s1.2-0.8,1.7-1.3c0.5-0.5,0.9-1.1,1.2-1.7l1.8,0.5c-0.3,0.8-0.8,1.5-1.4,2.2s-1.3,1.2-2.1,1.7
			c-0.8,0.5-1.7,0.8-2.6,1.1C35.1,48.8,34.1,48.9,33.1,48.9z M41.7,36.8c-0.1-1.3-0.4-2.5-0.9-3.5c-0.5-1.1-1.1-2-1.9-2.7
			c-0.8-0.8-1.7-1.4-2.7-1.8c-1-0.4-2.1-0.6-3.2-0.6s-2.2,0.2-3.2,0.6c-1,0.4-1.9,1-2.7,1.8c-0.8,0.8-1.4,1.7-1.8,2.8
			c-0.5,1.1-0.7,2.2-0.8,3.5H41.7z"/>
		<path class="st4" d="M53.7,48.9c-1,0-1.9-0.2-2.8-0.5c-0.9-0.3-1.6-0.8-2.3-1.4c-0.7-0.6-1.2-1.3-1.5-2.1
			c-0.4-0.8-0.5-1.7-0.5-2.7s0.2-1.8,0.7-2.6s1.1-1.5,1.9-2s1.8-1,2.9-1.3c1.1-0.3,2.3-0.5,3.7-0.5c1.2,0,2.4,0.1,3.5,0.3
			c1.2,0.2,2.3,0.5,3.2,0.9v-2.1c0-2.1-0.6-3.7-1.8-4.9c-1.2-1.2-2.8-1.8-4.8-1.8c-1.1,0-2.2,0.2-3.4,0.7c-1.2,0.4-2.4,1.1-3.6,1.9
			L48,29.2c2.8-1.9,5.5-2.9,8-2.9c2.6,0,4.7,0.8,6.2,2.3c1.5,1.5,2.3,3.6,2.3,6.3v10.7c0,0.7,0.3,1,0.9,1v1.9c-0.1,0-0.3,0-0.4,0.1
			c-0.2,0-0.3,0-0.4,0c-0.6,0-1-0.2-1.3-0.6c-0.3-0.4-0.5-0.8-0.6-1.4v-1.8c-1,1.3-2.3,2.3-3.9,3C57.2,48.6,55.5,48.9,53.7,48.9z
			 M54.1,47.3c1.6,0,3.1-0.3,4.5-0.9s2.4-1.4,3.1-2.4c0.4-0.6,0.7-1.1,0.7-1.7v-3.9c-1-0.4-2.1-0.7-3.1-0.9
			c-1.1-0.2-2.2-0.3-3.4-0.3c-1.1,0-2.1,0.1-3,0.4c-0.9,0.2-1.7,0.6-2.3,1c-0.6,0.4-1.1,0.9-1.5,1.5c-0.4,0.6-0.5,1.3-0.5,2
			c0,0.7,0.1,1.4,0.4,2.1c0.3,0.6,0.7,1.2,1.2,1.7c0.5,0.5,1.1,0.8,1.8,1.1C52.6,47.1,53.3,47.3,54.1,47.3z"/>
		<path class="st4" d="M88.7,48.5h-2.1V36.3c0-2.8-0.4-4.9-1.2-6.2s-2.1-1.9-3.8-1.9c-0.9,0-1.8,0.2-2.7,0.5
			c-0.9,0.3-1.8,0.8-2.5,1.4c-0.8,0.6-1.5,1.3-2.1,2.2c-0.6,0.8-1,1.7-1.3,2.7v13.5h-2.1V26.7h2v5.2c0.4-0.8,1-1.6,1.7-2.3
			c0.7-0.7,1.4-1.3,2.2-1.8c0.8-0.5,1.7-0.9,2.6-1.1s1.9-0.4,2.9-0.4c2.4,0,4.1,0.8,5,2.5c1,1.7,1.5,4,1.5,7.2V48.5z"/>
		<path class="st4" d="M0.5,92.1V62.3H11c2.4,0,4.5,0.4,6.3,1.2c1.8,0.8,3.3,1.8,4.5,3.2c1.2,1.3,2.1,2.9,2.7,4.7
			c0.6,1.8,0.9,3.7,0.9,5.8c0,2.3-0.3,4.3-1,6.1c-0.7,1.8-1.7,3.4-2.9,4.7c-1.3,1.3-2.8,2.3-4.6,3c-1.8,0.7-3.8,1.1-6,1.1H0.5z
			 M20.8,77.1c0-1.6-0.2-3-0.7-4.3c-0.4-1.3-1.1-2.4-1.9-3.4s-1.9-1.7-3.1-2.2s-2.6-0.8-4.1-0.8H5.2v21.5H11c1.6,0,3-0.3,4.2-0.8
			c1.2-0.5,2.2-1.3,3.1-2.3c0.8-1,1.4-2.1,1.9-3.4C20.5,80.1,20.8,78.7,20.8,77.1z"/>
		<path class="st4" d="M29.9,66.5v-5.1h4.6v5.1H29.9z M29.9,92.1V70.1h4.6v21.9H29.9z"/>
		<path class="st4" d="M48.7,92.3c-1.5,0-2.8-0.3-4.1-0.9c-1.2-0.6-2.3-1.4-3.2-2.5s-1.6-2.2-2.1-3.6s-0.7-2.8-0.7-4.2
			c0-1.6,0.3-3,0.8-4.4c0.5-1.4,1.2-2.6,2.1-3.6c0.9-1,2-1.8,3.2-2.4c1.2-0.6,2.6-0.9,4.1-0.9c1.8,0,3.3,0.4,4.6,1.3
			s2.4,1.9,3.3,3.3v-4.2h4.1v21.3c0,1.6-0.3,3-0.9,4.2c-0.6,1.2-1.4,2.3-2.5,3.1c-1,0.9-2.3,1.5-3.7,2c-1.4,0.4-3,0.7-4.6,0.7
			c-2.4,0-4.5-0.4-6.1-1.2c-1.6-0.8-3-2-4-3.5l2.6-2.4c0.8,1.2,1.9,2.1,3.2,2.7s2.7,0.9,4.3,0.9c1,0,1.9-0.1,2.7-0.4
			c0.9-0.3,1.6-0.6,2.2-1.2c0.6-0.5,1.2-1.2,1.5-2c0.4-0.8,0.6-1.8,0.6-2.9v-3.4c-0.8,1.3-1.9,2.4-3.2,3.1
			C51.7,91.9,50.2,92.3,48.7,92.3z M50.2,88.5c0.7,0,1.4-0.1,2-0.4c0.6-0.2,1.2-0.6,1.8-1c0.5-0.4,1-0.9,1.4-1.4s0.7-1.1,0.8-1.7
			v-5.7c-0.3-0.7-0.6-1.3-1.1-1.9c-0.4-0.6-1-1.1-1.5-1.5c-0.6-0.4-1.2-0.7-1.8-1c-0.6-0.2-1.3-0.4-1.9-0.4c-1,0-1.9,0.2-2.7,0.7
			s-1.5,1-2,1.7c-0.6,0.7-1,1.5-1.3,2.4c-0.3,0.9-0.5,1.8-0.5,2.8c0,1,0.2,2,0.5,2.8c0.3,0.9,0.8,1.7,1.4,2.3
			c0.6,0.7,1.3,1.2,2.2,1.6C48.4,88.3,49.3,88.5,50.2,88.5z"/>
		<path class="st4" d="M66.4,66.5v-5.1H71v5.1H66.4z M66.4,92.1V70.1H71v21.9H66.4z"/>
		<path class="st4" d="M88.8,90.9c-0.6,0.3-1.4,0.6-2.4,0.9c-1,0.3-2.1,0.5-3.3,0.5c-0.7,0-1.4-0.1-2.1-0.3s-1.2-0.5-1.7-0.9
			s-0.9-0.9-1.2-1.5c-0.3-0.6-0.4-1.4-0.4-2.3V73.7h-2.9v-3.6h2.9v-7.2h4.6v7.2h4.8v3.6h-4.8v12.2c0.1,0.8,0.3,1.3,0.7,1.7
			s1,0.5,1.6,0.5c0.6,0,1.3-0.1,1.8-0.3c0.6-0.2,1-0.4,1.3-0.5L88.8,90.9z"/>
		<path class="st4" d="M97.8,92.5c-1.1,0-2-0.2-3-0.5c-0.9-0.3-1.7-0.8-2.3-1.4c-0.7-0.6-1.2-1.3-1.6-2.2c-0.4-0.8-0.6-1.7-0.6-2.7
			c0-1,0.2-2,0.7-2.8c0.4-0.8,1.1-1.6,1.9-2.2c0.8-0.6,1.8-1.1,2.9-1.4c1.1-0.3,2.4-0.5,3.8-0.5c1,0,2.1,0.1,3.1,0.3
			c1,0.2,1.9,0.4,2.7,0.7v-1.5c0-1.6-0.5-2.9-1.4-3.8c-0.9-0.9-2.3-1.4-4-1.4c-1.2,0-2.3,0.2-3.5,0.7c-1.1,0.4-2.3,1.1-3.5,1.9
			l-1.4-2.9c2.8-1.9,5.8-2.9,8.8-2.9c3,0,5.4,0.8,7,2.3c1.7,1.5,2.5,3.7,2.5,6.6v7.9c0,1,0.4,1.5,1.2,1.5v3.9
			c-0.4,0.1-0.8,0.1-1.2,0.2c-0.3,0-0.6,0-0.9,0c-0.9,0-1.6-0.2-2.1-0.7s-0.8-1-0.9-1.7l-0.1-1.4c-1,1.3-2.2,2.3-3.6,3
			C101,92.1,99.4,92.5,97.8,92.5z M99.1,89.1c1.1,0,2.2-0.2,3.2-0.6c1-0.4,1.8-1,2.3-1.7c0.6-0.5,0.9-1,0.9-1.6v-2.9
			c-0.8-0.3-1.6-0.5-2.5-0.7c-0.9-0.2-1.7-0.3-2.6-0.3c-1.7,0-3,0.4-4,1.1s-1.6,1.7-1.6,2.8c0,1.1,0.4,2,1.2,2.7
			C96.8,88.7,97.8,89.1,99.1,89.1z"/>
		<path class="st4" d="M115.7,61.4h4.6v24.3c0,0.8,0.2,1.4,0.6,1.9c0.4,0.5,1,0.7,1.8,0.7c0.3,0,0.7-0.1,1.1-0.2s0.8-0.2,1.2-0.4
			l0.7,3.6c-0.7,0.3-1.5,0.6-2.4,0.7c-0.9,0.2-1.7,0.3-2.5,0.3c-1.6,0-2.8-0.4-3.7-1.3c-0.9-0.9-1.3-2.1-1.3-3.7V61.4z"/>
	</g>
</g>
</svg>
