<?xml version="1.0" encoding="utf-8"?>
<!-- Generator: Adobe Illustrator 23.0.4, SVG Export Plug-In . SVG Version: 6.00 Build 0)  -->
<svg version="1.1" id="Layer_1" xmlns="http://www.w3.org/2000/svg" xmlns:xlink="http://www.w3.org/1999/xlink" x="0px" y="0px"
	 viewBox="0 0 138.7 52.8" style="enable-background:new 0 0 138.7 52.8;" xml:space="preserve">
<style type="text/css">
	.st0{fill:#7AC5ED;}
	.st1{fill:#348ACA;}
	.st2{fill:#015793;}
	.st3{fill:#3DA9E0;}
	.st4{fill:#0B0B0B;}
</style>
<g>
	<g>
		<g>
			<path class="st0" d="M42,37.6c5.1-6.6,6.7-16,1.9-25.5C40.4,5.2,33.2,1,25.5,1H4.4L42,37.6z"/>
		</g>
		<path class="st1" d="M23.2,46.4h0.9c3.7,0,7.3-0.9,10.4-2.5L1,11.2v13.5L23.2,46.4z"/>
		<path class="st2" d="M1,24.7v18c0,2.1,1.7,3.7,3.7,3.7h18.5L1,24.7z"/>
		<g>
			<path class="st2" d="M24.1,46.4h22.1c1.7,0,2.6-2.1,1.3-3.3L42,37.6C37.8,42.9,31.4,46.4,24.1,46.4z"/>
		</g>
		<path class="st3" d="M34.5,43.8c2.9-1.5,5.5-3.6,7.5-6.2L4.4,1H3.8C2.3,1,1,2.3,1,3.8v7.4L34.5,43.8z"/>
	</g>
	<g>
		<path class="st4" d="M63.4,20.3V2.5h1.3v16.6h10.6v1.2H63.4z"/>
		<path class="st4" d="M82.6,20.5c-0.9,0-1.8-0.2-2.6-0.5s-1.5-0.9-2-1.5c-0.6-0.6-1-1.3-1.3-2.2c-0.3-0.8-0.5-1.7-0.5-2.6
			c0-0.9,0.2-1.8,0.5-2.6c0.3-0.8,0.8-1.5,1.3-2.1c0.6-0.6,1.2-1.1,2-1.4C80.7,7.2,81.6,7,82.5,7c0.9,0,1.8,0.2,2.6,0.5
			c0.8,0.4,1.5,0.8,2,1.5c0.6,0.6,1,1.3,1.3,2.1c0.3,0.8,0.5,1.7,0.5,2.6c0,0.1,0,0.2,0,0.3s0,0.2,0,0.2H77.4c0,0.8,0.2,1.4,0.5,2.1
			c0.3,0.6,0.7,1.2,1.1,1.7c0.5,0.5,1,0.8,1.6,1.1c0.6,0.3,1.2,0.4,1.9,0.4c0.5,0,0.9-0.1,1.3-0.2c0.4-0.1,0.8-0.3,1.2-0.5
			s0.7-0.5,1-0.8s0.5-0.6,0.7-1l1.1,0.3c-0.2,0.5-0.5,0.9-0.8,1.3c-0.4,0.4-0.8,0.7-1.2,1c-0.5,0.3-1,0.5-1.6,0.7
			S83.2,20.5,82.6,20.5z M87.7,13.3c-0.1-0.8-0.2-1.5-0.5-2.1c-0.3-0.6-0.7-1.2-1.1-1.6c-0.5-0.5-1-0.8-1.6-1.1
			c-0.6-0.3-1.2-0.4-1.9-0.4c-0.7,0-1.3,0.1-1.9,0.4C80,8.7,79.4,9.1,79,9.5c-0.5,0.5-0.8,1-1.1,1.7c-0.3,0.6-0.4,1.3-0.5,2.1H87.7z
			"/>
		<path class="st4" d="M94.8,20.5c-0.6,0-1.2-0.1-1.7-0.3c-0.5-0.2-1-0.5-1.4-0.9c-0.4-0.4-0.7-0.8-0.9-1.3s-0.3-1-0.3-1.6
			c0-0.6,0.1-1.1,0.4-1.6s0.6-0.9,1.1-1.2c0.5-0.3,1-0.6,1.7-0.8c0.7-0.2,1.4-0.3,2.2-0.3c0.7,0,1.4,0.1,2.1,0.2
			c0.7,0.1,1.3,0.3,1.9,0.5v-1.3c0-1.2-0.3-2.2-1-2.9S97.3,8,96.1,8c-0.6,0-1.3,0.1-2,0.4c-0.7,0.3-1.4,0.6-2.2,1.2l-0.5-0.9
			C93.1,7.6,94.7,7,96.2,7c1.6,0,2.8,0.5,3.7,1.4c0.9,0.9,1.4,2.2,1.4,3.8v6.4c0,0.4,0.2,0.6,0.5,0.6v1.1c-0.1,0-0.2,0-0.3,0
			c-0.1,0-0.2,0-0.2,0c-0.3,0-0.6-0.1-0.8-0.3c-0.2-0.2-0.3-0.5-0.3-0.8v-1.1c-0.6,0.8-1.4,1.4-2.3,1.8S95.9,20.5,94.8,20.5z
			 M95.1,19.5c1,0,1.9-0.2,2.7-0.6s1.4-0.9,1.9-1.5c0.3-0.4,0.4-0.7,0.4-1v-2.3c-0.6-0.2-1.2-0.4-1.9-0.5c-0.7-0.1-1.3-0.2-2-0.2
			c-0.7,0-1.2,0.1-1.8,0.2c-0.5,0.1-1,0.3-1.4,0.6c-0.4,0.2-0.7,0.6-0.9,0.9c-0.2,0.4-0.3,0.8-0.3,1.2c0,0.4,0.1,0.8,0.2,1.2
			c0.2,0.4,0.4,0.7,0.7,1c0.3,0.3,0.7,0.5,1.1,0.6C94.1,19.4,94.6,19.5,95.1,19.5z"/>
		<path class="st4" d="M115.7,20.3h-1.3V13c0-1.7-0.2-2.9-0.7-3.7c-0.5-0.8-1.2-1.1-2.3-1.1c-0.5,0-1.1,0.1-1.6,0.3
			c-0.5,0.2-1,0.5-1.5,0.9c-0.5,0.4-0.9,0.8-1.2,1.3c-0.3,0.5-0.6,1-0.8,1.6v8.1H105v-13h1.2v3.1c0.3-0.5,0.6-1,1-1.4
			c0.4-0.4,0.8-0.8,1.3-1.1c0.5-0.3,1-0.5,1.6-0.7c0.5-0.2,1.1-0.2,1.7-0.2c1.4,0,2.4,0.5,3,1.5c0.6,1,0.9,2.4,0.9,4.3V20.3z"/>
		<path class="st4" d="M63.1,46.2V28.5h6.3c1.4,0,2.7,0.2,3.8,0.7s2,1.1,2.7,1.9c0.7,0.8,1.3,1.7,1.6,2.8c0.4,1.1,0.5,2.2,0.5,3.4
			c0,1.4-0.2,2.6-0.6,3.7c-0.4,1.1-1,2-1.7,2.8c-0.8,0.8-1.7,1.4-2.7,1.8c-1.1,0.4-2.3,0.6-3.6,0.6H63.1z M75.2,37.3
			c0-0.9-0.1-1.8-0.4-2.6s-0.6-1.5-1.1-2s-1.1-1-1.8-1.3c-0.7-0.3-1.5-0.5-2.5-0.5h-3.5v12.8h3.5c0.9,0,1.8-0.2,2.5-0.5
			c0.7-0.3,1.3-0.8,1.8-1.4c0.5-0.6,0.9-1.3,1.1-2C75,39.1,75.2,38.2,75.2,37.3z"/>
		<path class="st4" d="M80.6,31v-3h2.8v3H80.6z M80.6,46.2V33.1h2.8v13.1H80.6z"/>
		<path class="st4" d="M91.9,46.3c-0.9,0-1.7-0.2-2.4-0.5c-0.7-0.4-1.4-0.8-1.9-1.5c-0.5-0.6-0.9-1.3-1.2-2.1
			c-0.3-0.8-0.4-1.6-0.4-2.5c0-0.9,0.1-1.8,0.5-2.6c0.3-0.8,0.7-1.5,1.2-2.2c0.5-0.6,1.2-1.1,1.9-1.5c0.7-0.4,1.6-0.5,2.5-0.5
			c1,0,2,0.2,2.8,0.8s1.4,1.2,2,2v-2.5h2.4v12.7c0,1-0.2,1.8-0.5,2.5c-0.3,0.7-0.8,1.4-1.5,1.9c-0.6,0.5-1.4,0.9-2.2,1.2
			c-0.8,0.3-1.8,0.4-2.8,0.4c-1.5,0-2.7-0.2-3.6-0.7c-1-0.5-1.8-1.2-2.4-2.1l1.5-1.5c0.5,0.7,1.1,1.2,1.9,1.6
			c0.8,0.4,1.6,0.5,2.5,0.5c0.6,0,1.1-0.1,1.6-0.2c0.5-0.2,1-0.4,1.3-0.7c0.4-0.3,0.7-0.7,0.9-1.2c0.2-0.5,0.3-1.1,0.3-1.7v-2
			c-0.5,0.8-1.1,1.4-1.9,1.9C93.6,46.1,92.8,46.3,91.9,46.3z M92.8,44.1c0.4,0,0.8-0.1,1.2-0.2c0.4-0.1,0.7-0.3,1.1-0.6
			c0.3-0.2,0.6-0.5,0.8-0.8s0.4-0.6,0.5-1v-3.4c-0.2-0.4-0.4-0.8-0.6-1.1c-0.3-0.3-0.6-0.6-0.9-0.9s-0.7-0.4-1.1-0.6
			s-0.8-0.2-1.2-0.2c-0.6,0-1.1,0.1-1.6,0.4c-0.5,0.3-0.9,0.6-1.2,1c-0.3,0.4-0.6,0.9-0.8,1.4s-0.3,1.1-0.3,1.7
			c0,0.6,0.1,1.2,0.3,1.7c0.2,0.5,0.5,1,0.9,1.4c0.4,0.4,0.8,0.7,1.3,0.9C91.6,44,92.2,44.1,92.8,44.1z"/>
		<path class="st4" d="M102.4,31v-3h2.8v3H102.4z M102.4,46.2V33.1h2.8v13.1H102.4z"/>
		<path class="st4" d="M115.7,45.5c-0.3,0.2-0.8,0.4-1.5,0.6s-1.3,0.3-2,0.3c-0.4,0-0.8-0.1-1.2-0.2c-0.4-0.1-0.7-0.3-1-0.5
			c-0.3-0.2-0.5-0.5-0.7-0.9c-0.2-0.4-0.2-0.8-0.2-1.4v-8.2h-1.7v-2.1h1.7v-4.3h2.8v4.3h2.9v2.1h-2.9v7.3c0,0.5,0.2,0.8,0.4,1
			c0.3,0.2,0.6,0.3,1,0.3c0.4,0,0.8-0.1,1.1-0.2c0.3-0.1,0.6-0.2,0.8-0.3L115.7,45.5z"/>
		<path class="st4" d="M121.1,46.5c-0.6,0-1.2-0.1-1.8-0.3s-1-0.5-1.4-0.9c-0.4-0.4-0.7-0.8-0.9-1.3c-0.2-0.5-0.3-1-0.3-1.6
			c0-0.6,0.1-1.2,0.4-1.7c0.3-0.5,0.6-0.9,1.1-1.3c0.5-0.4,1.1-0.7,1.8-0.9c0.7-0.2,1.4-0.3,2.2-0.3c0.6,0,1.2,0.1,1.8,0.2
			c0.6,0.1,1.1,0.3,1.6,0.4v-0.9c0-1-0.3-1.7-0.8-2.3c-0.6-0.5-1.3-0.8-2.4-0.8c-0.7,0-1.4,0.1-2.1,0.4c-0.7,0.3-1.4,0.6-2.1,1.1
			l-0.8-1.8c1.7-1.1,3.4-1.7,5.3-1.7c1.8,0,3.2,0.5,4.2,1.4s1.5,2.2,1.5,4V43c0,0.6,0.2,0.9,0.7,0.9v2.4c-0.3,0-0.5,0.1-0.7,0.1
			c-0.2,0-0.4,0-0.6,0c-0.5,0-0.9-0.1-1.2-0.4c-0.3-0.3-0.5-0.6-0.5-1l-0.1-0.8c-0.6,0.8-1.3,1.4-2.2,1.8
			C123,46.3,122.1,46.5,121.1,46.5z M121.9,44.4c0.7,0,1.3-0.1,1.9-0.4c0.6-0.2,1.1-0.6,1.4-1c0.3-0.3,0.5-0.6,0.5-1v-1.7
			c-0.5-0.2-1-0.3-1.5-0.4c-0.5-0.1-1-0.2-1.5-0.2c-1,0-1.8,0.2-2.4,0.6s-0.9,1-0.9,1.7c0,0.7,0.2,1.2,0.7,1.6
			C120.5,44.2,121.1,44.4,121.9,44.4z"/>
		<path class="st4" d="M131.8,28h2.8v14.5c0,0.5,0.1,0.9,0.4,1.1c0.2,0.3,0.6,0.4,1.1,0.4c0.2,0,0.4,0,0.6-0.1
			c0.2-0.1,0.5-0.1,0.7-0.2l0.4,2.2c-0.4,0.2-0.9,0.3-1.4,0.4c-0.5,0.1-1,0.2-1.5,0.2c-1,0-1.7-0.3-2.2-0.8s-0.8-1.2-0.8-2.2V28z"/>
	</g>
</g>
</svg>
