<?xml version="1.0" encoding="UTF-8" standalone="no"?>
<!DOCTYPE svg PUBLIC "-//W3C//DTD SVG 1.1//EN" "http://www.w3.org/Graphics/SVG/1.1/DTD/svg11.dtd">
<svg width="100%" height="100%" viewBox="0 0 156 103" version="1.1" xmlns="http://www.w3.org/2000/svg" xmlns:xlink="http://www.w3.org/1999/xlink" xml:space="preserve" xmlns:serif="http://www.serif.com/" style="fill-rule:evenodd;clip-rule:evenodd;stroke-linejoin:round;stroke-miterlimit:2;">
    <g>
        <g>
            <path d="M147.7,39.5C153.1,32.6 154.8,22.6 149.7,12.7C146.1,5.5 138.5,1 130.4,1L108.2,1L147.7,39.5Z" style="fill:rgb(122,197,237);fill-rule:nonzero;"/>
            <path d="M128,48.7L128.9,48.7C132.8,48.7 136.5,47.7 139.8,46L104.6,11.7L104.6,25.9L128,48.7Z" style="fill:rgb(52,138,202);fill-rule:nonzero;"/>
            <path d="M104.6,25.9L104.6,44.8C104.6,47 106.4,48.7 108.5,48.7L128,48.7L104.6,25.9Z" style="fill:rgb(1,87,147);fill-rule:nonzero;"/>
            <path d="M128.9,48.7L152.1,48.7C153.9,48.7 154.8,46.5 153.5,45.2L147.7,39.5C143.3,45.1 136.6,48.7 128.9,48.7Z" style="fill:rgb(1,87,147);fill-rule:nonzero;"/>
            <path d="M139.8,46C142.9,44.4 145.6,42.2 147.7,39.5L108.2,1L107.6,1C106,1 104.6,2.3 104.6,4L104.6,11.7L139.8,46Z" style="fill:rgb(61,169,224);fill-rule:nonzero;"/>
        </g>
        <g>
            <path d="M1,48.5L1,18.7L3.1,18.7L3.1,46.5L20.9,46.5L20.9,48.4L1,48.4L1,48.5Z" style="fill:white;fill-rule:nonzero;"/>
            <path d="M33.1,48.9C31.6,48.9 30.1,48.6 28.8,48C27.5,47.4 26.3,46.6 25.4,45.5C24.5,44.4 23.7,43.2 23.1,41.9C22.6,40.5 22.3,39.1 22.3,37.5C22.3,36 22.6,34.5 23.1,33.2C23.6,31.8 24.4,30.7 25.3,29.6C26.3,28.6 27.4,27.8 28.7,27.2C30,26.6 31.4,26.3 32.9,26.3C34.4,26.3 35.9,26.6 37.2,27.2C38.5,27.8 39.6,28.6 40.6,29.6C41.6,30.6 42.3,31.8 42.8,33.2C43.3,34.6 43.6,36 43.6,37.5L43.6,38.4L24.5,38.4C24.6,39.7 24.9,40.8 25.4,41.9C25.9,43 26.5,43.9 27.3,44.7C28.1,45.5 29,46.1 30,46.5C31,46.9 32.1,47.2 33.2,47.2C34,47.2 34.7,47.1 35.4,46.9C36.1,46.7 36.8,46.4 37.4,46C38,45.6 38.6,45.2 39.1,44.7C39.6,44.2 40,43.6 40.3,43L42.1,43.5C41.8,44.3 41.3,45 40.7,45.7C40.1,46.4 39.4,46.9 38.6,47.4C37.8,47.9 36.9,48.2 36,48.5C35.1,48.8 34.1,48.9 33.1,48.9ZM41.7,36.8C41.6,35.5 41.3,34.3 40.8,33.3C40.3,32.2 39.7,31.3 38.9,30.6C38.1,29.8 37.2,29.2 36.2,28.8C35.2,28.4 34.1,28.2 33,28.2C31.9,28.2 30.8,28.4 29.8,28.8C28.8,29.2 27.9,29.8 27.1,30.6C26.3,31.4 25.7,32.3 25.3,33.4C24.8,34.5 24.6,35.6 24.5,36.9L41.7,36.9L41.7,36.8Z" style="fill:white;fill-rule:nonzero;"/>
            <path d="M53.7,48.9C52.7,48.9 51.8,48.7 50.9,48.4C50,48.1 49.3,47.6 48.6,47C47.9,46.4 47.4,45.7 47.1,44.9C46.7,44.1 46.6,43.2 46.6,42.2C46.6,41.2 46.8,40.4 47.3,39.6C47.8,38.8 48.4,38.1 49.2,37.6C50,37.1 51,36.6 52.1,36.3C53.2,36 54.4,35.8 55.8,35.8C57,35.8 58.2,35.9 59.3,36.1C60.5,36.3 61.6,36.6 62.5,37L62.5,34.9C62.5,32.8 61.9,31.2 60.7,30C59.5,28.8 57.9,28.2 55.9,28.2C54.8,28.2 53.7,28.4 52.5,28.9C51.3,29.3 50.1,30 48.9,30.8L48,29.2C50.8,27.3 53.5,26.3 56,26.3C58.6,26.3 60.7,27.1 62.2,28.6C63.7,30.1 64.5,32.2 64.5,34.9L64.5,45.6C64.5,46.3 64.8,46.6 65.4,46.6L65.4,48.5C65.3,48.5 65.1,48.5 65,48.6L64.6,48.6C64,48.6 63.6,48.4 63.3,48C63,47.6 62.8,47.2 62.7,46.6L62.7,44.8C61.7,46.1 60.4,47.1 58.8,47.8C57.2,48.6 55.5,48.9 53.7,48.9ZM54.1,47.3C55.7,47.3 57.2,47 58.6,46.4C60,45.8 61,45 61.7,44C62.1,43.4 62.4,42.9 62.4,42.3L62.4,38.4C61.4,38 60.3,37.7 59.3,37.5C58.2,37.3 57.1,37.2 55.9,37.2C54.8,37.2 53.8,37.3 52.9,37.6C52,37.8 51.2,38.2 50.6,38.6C50,39 49.5,39.5 49.1,40.1C48.7,40.7 48.6,41.4 48.6,42.1C48.6,42.8 48.7,43.5 49,44.2C49.3,44.8 49.7,45.4 50.2,45.9C50.7,46.4 51.3,46.7 52,47C52.6,47.1 53.3,47.3 54.1,47.3Z" style="fill:white;fill-rule:nonzero;"/>
            <path d="M88.7,48.5L86.6,48.5L86.6,36.3C86.6,33.5 86.2,31.4 85.4,30.1C84.6,28.8 83.3,28.2 81.6,28.2C80.7,28.2 79.8,28.4 78.9,28.7C78,29 77.1,29.5 76.4,30.1C75.6,30.7 74.9,31.4 74.3,32.3C73.7,33.1 73.3,34 73,35L73,48.5L70.9,48.5L70.9,26.7L72.9,26.7L72.9,31.9C73.3,31.1 73.9,30.3 74.6,29.6C75.3,28.9 76,28.3 76.8,27.8C77.6,27.3 78.5,26.9 79.4,26.7C80.3,26.5 81.3,26.3 82.3,26.3C84.7,26.3 86.4,27.1 87.3,28.8C88.3,30.5 88.8,32.8 88.8,36L88.8,48.5L88.7,48.5Z" style="fill:white;fill-rule:nonzero;"/>
            <path d="M0.5,92.1L0.5,62.3L11,62.3C13.4,62.3 15.5,62.7 17.3,63.5C19.1,64.3 20.6,65.3 21.8,66.7C23,68 23.9,69.6 24.5,71.4C25.1,73.2 25.4,75.1 25.4,77.2C25.4,79.5 25.1,81.5 24.4,83.3C23.7,85.1 22.7,86.7 21.5,88C20.2,89.3 18.7,90.3 16.9,91C15.1,91.7 13.1,92.1 10.9,92.1L0.5,92.1ZM20.8,77.1C20.8,75.5 20.6,74.1 20.1,72.8C19.7,71.5 19,70.4 18.2,69.4C17.4,68.4 16.3,67.7 15.1,67.2C13.9,66.7 12.5,66.4 11,66.4L5.2,66.4L5.2,87.9L11,87.9C12.6,87.9 14,87.6 15.2,87.1C16.4,86.6 17.4,85.8 18.3,84.8C19.1,83.8 19.7,82.7 20.2,81.4C20.5,80.1 20.8,78.7 20.8,77.1Z" style="fill:white;fill-rule:nonzero;"/>
            <path d="M29.9,66.5L29.9,61.4L34.5,61.4L34.5,66.5L29.9,66.5ZM29.9,92.1L29.9,70.1L34.5,70.1L34.5,92L29.9,92L29.9,92.1Z" style="fill:white;fill-rule:nonzero;"/>
            <path d="M48.7,92.3C47.2,92.3 45.9,92 44.6,91.4C43.4,90.8 42.3,90 41.4,88.9C40.5,87.8 39.8,86.7 39.3,85.3C38.8,83.9 38.6,82.5 38.6,81.1C38.6,79.5 38.9,78.1 39.4,76.7C39.9,75.3 40.6,74.1 41.5,73.1C42.4,72.1 43.5,71.3 44.7,70.7C45.9,70.1 47.3,69.8 48.8,69.8C50.6,69.8 52.1,70.2 53.4,71.1C54.7,72 55.8,73 56.7,74.4L56.7,70.2L60.8,70.2L60.8,91.5C60.8,93.1 60.5,94.5 59.9,95.7C59.3,96.9 58.5,98 57.4,98.8C56.4,99.7 55.1,100.3 53.7,100.8C52.3,101.2 50.7,101.5 49.1,101.5C46.7,101.5 44.6,101.1 43,100.3C41.4,99.5 40,98.3 39,96.8L41.6,94.4C42.4,95.6 43.5,96.5 44.8,97.1C46.1,97.7 47.5,98 49.1,98C50.1,98 51,97.9 51.8,97.6C52.7,97.3 53.4,97 54,96.4C54.6,95.9 55.2,95.2 55.5,94.4C55.9,93.6 56.1,92.6 56.1,91.5L56.1,88.1C55.3,89.4 54.2,90.5 52.9,91.2C51.7,91.9 50.2,92.3 48.7,92.3ZM50.2,88.5C50.9,88.5 51.6,88.4 52.2,88.1C52.8,87.9 53.4,87.5 54,87.1C54.5,86.7 55,86.2 55.4,85.7C55.8,85.2 56.1,84.6 56.2,84L56.2,78.3C55.9,77.6 55.6,77 55.1,76.4C54.7,75.8 54.1,75.3 53.6,74.9C53,74.5 52.4,74.2 51.8,73.9C51.2,73.7 50.5,73.5 49.9,73.5C48.9,73.5 48,73.7 47.2,74.2C46.4,74.7 45.7,75.2 45.2,75.9C44.6,76.6 44.2,77.4 43.9,78.3C43.6,79.2 43.4,80.1 43.4,81.1C43.4,82.1 43.6,83.1 43.9,83.9C44.2,84.8 44.7,85.6 45.3,86.2C45.9,86.9 46.6,87.4 47.5,87.8C48.4,88.3 49.3,88.5 50.2,88.5Z" style="fill:white;fill-rule:nonzero;"/>
            <path d="M66.4,66.5L66.4,61.4L71,61.4L71,66.5L66.4,66.5ZM66.4,92.1L66.4,70.1L71,70.1L71,92L66.4,92L66.4,92.1Z" style="fill:white;fill-rule:nonzero;"/>
            <path d="M88.8,90.9C88.2,91.2 87.4,91.5 86.4,91.8C85.4,92.1 84.3,92.3 83.1,92.3C82.4,92.3 81.7,92.2 81,92C80.3,91.8 79.8,91.5 79.3,91.1C78.8,90.7 78.4,90.2 78.1,89.6C77.8,89 77.7,88.2 77.7,87.3L77.7,73.7L74.8,73.7L74.8,70.1L77.7,70.1L77.7,62.9L82.3,62.9L82.3,70.1L87.1,70.1L87.1,73.7L82.3,73.7L82.3,85.9C82.4,86.7 82.6,87.2 83,87.6C83.4,88 84,88.1 84.6,88.1C85.2,88.1 85.9,88 86.4,87.8C87,87.6 87.4,87.4 87.7,87.3L88.8,90.9Z" style="fill:white;fill-rule:nonzero;"/>
            <path d="M97.8,92.5C96.7,92.5 95.8,92.3 94.8,92C93.9,91.7 93.1,91.2 92.5,90.6C91.8,90 91.3,89.3 90.9,88.4C90.5,87.6 90.3,86.7 90.3,85.7C90.3,84.7 90.5,83.7 91,82.9C91.4,82.1 92.1,81.3 92.9,80.7C93.7,80.1 94.7,79.6 95.8,79.3C96.9,79 98.2,78.8 99.6,78.8C100.6,78.8 101.7,78.9 102.7,79.1C103.7,79.3 104.6,79.5 105.4,79.8L105.4,78.3C105.4,76.7 104.9,75.4 104,74.5C103.1,73.6 101.7,73.1 100,73.1C98.8,73.1 97.7,73.3 96.5,73.8C95.4,74.2 94.2,74.9 93,75.7L91.6,72.8C94.4,70.9 97.4,69.9 100.4,69.9C103.4,69.9 105.8,70.7 107.4,72.2C109.1,73.7 109.9,75.9 109.9,78.8L109.9,86.7C109.9,87.7 110.3,88.2 111.1,88.2L111.1,92.1C110.7,92.2 110.3,92.2 109.9,92.3L109,92.3C108.1,92.3 107.4,92.1 106.9,91.6C106.4,91.1 106.1,90.6 106,89.9L105.9,88.5C104.9,89.8 103.7,90.8 102.3,91.5C101,92.1 99.4,92.5 97.8,92.5ZM99.1,89.1C100.2,89.1 101.3,88.9 102.3,88.5C103.3,88.1 104.1,87.5 104.6,86.8C105.2,86.3 105.5,85.8 105.5,85.2L105.5,82.3C104.7,82 103.9,81.8 103,81.6C102.1,81.4 101.3,81.3 100.4,81.3C98.7,81.3 97.4,81.7 96.4,82.4C95.4,83.1 94.8,84.1 94.8,85.2C94.8,86.3 95.2,87.2 96,87.9C96.8,88.7 97.8,89.1 99.1,89.1Z" style="fill:white;fill-rule:nonzero;"/>
            <path d="M115.7,61.4L120.3,61.4L120.3,85.7C120.3,86.5 120.5,87.1 120.9,87.6C121.3,88.1 121.9,88.3 122.7,88.3C123,88.3 123.4,88.2 123.8,88.1C124.2,88 124.6,87.9 125,87.7L125.7,91.3C125,91.6 124.2,91.9 123.3,92C122.4,92.2 121.6,92.3 120.8,92.3C119.2,92.3 118,91.9 117.1,91C116.2,90.1 115.8,88.9 115.8,87.3L115.8,61.4L115.7,61.4Z" style="fill:white;fill-rule:nonzero;"/>
        </g>
    </g>
</svg>
